<?xml version="1.0" encoding="UTF-8"?>
<svg width="339px" height="104px" viewBox="0 0 339 104" version="1.1" xmlns="http://www.w3.org/2000/svg" xmlns:xlink="http://www.w3.org/1999/xlink">
    <!-- Generator: Sketch 44 (41411) - http://www.bohemiancoding.com/sketch -->
    <title>tb_logo white</title>
    <desc>Created with Sketch.</desc>
    <defs></defs>
    <g id="Page-1" stroke="none" stroke-width="1" fill="none" fill-rule="evenodd">
        <g id="tb_logo-white" fill-rule="nonzero" fill="#FFFFFF">
            <g id="tb_logo" transform="translate(0.000000, 0.645089)">
                <g id="Group" transform="translate(0.000000, 32.879024)">
                    <path d="M24.4766066,59.9859522 C22.2116071,59.9859522 20.4580592,59.2553072 19.2159628,57.8670818 C17.9738663,56.4788563 17.3162858,54.5791794 17.3162858,52.168051 L17.3162858,26.6685415 L30.5409598,26.6685415 L30.5409598,18.1930598 L17.3162858,18.1930598 L17.3162858,2.41112841 L6.72193374,2.41112841 L6.72193374,18.1930598 L0.365322486,18.1930598 L0.365322486,26.6685415 L6.72193374,26.6685415 L6.72193374,51.875793 C6.72193374,57.1364368 8.32935268,61.3741776 11.4711261,64.515951 C14.6128994,67.6577244 18.4853178,69.1920788 23.0153166,69.1920788 C27.5453154,69.1920788 31.6369273,67.5115954 35.3632166,64.223693 L31.0524113,56.7711143 C28.9335409,58.8899847 26.741606,59.9859522 24.4766066,59.9859522 Z" id="Shape"></path>
                    <path d="M68.2422404,20.6772527 C64.8812735,20.6772527 61.7395001,21.4809622 58.8899847,23.1614456 C55.9674048,24.841929 53.8485344,27.1069285 52.3872445,30.1025728 L52.3872445,2.6303219 L42.3043439,2.6303219 L42.3043439,69.1920788 L52.3872445,69.1920788 L52.3872445,43.3272468 C52.3872445,38.8703125 53.7024054,35.5093456 56.2596628,33.2443462 C58.8169202,30.9062823 61.8856291,29.8103148 65.3196605,29.8103148 C72.6261102,29.8103148 76.2793351,34.1941847 76.2793351,43.0349888 L76.2793351,69.2651433 L86.3622357,69.2651433 L86.3622357,39.96628 C86.3622357,33.7557977 84.6817522,29.0066054 81.3938499,25.718703 C77.9598185,22.2846716 73.6490132,20.6772527 68.2422404,20.6772527 Z" id="Shape"></path>
                    <rect id="Rectangle-path" x="93.2302984" y="21.3348332" width="10.0829006" height="47.7841812"></rect>
                    <path d="M137.799642,20.6772527 C134.511739,20.6772527 131.44303,21.4809622 128.593515,23.1614456 C125.744,24.841929 123.552065,27.1069285 121.871581,30.1025728 L121.871581,21.3348332 L111.788681,21.3348332 L111.788681,69.1190143 L121.871581,69.1190143 L121.871581,43.2541823 C121.871581,38.797248 123.186742,35.4362811 125.744,33.1712817 C128.301257,30.8332178 131.369966,29.7372504 134.803997,29.7372504 C142.110447,29.7372504 145.763672,34.1211202 145.763672,42.9619243 L145.763672,69.1920788 L155.846572,69.1920788 L155.846572,39.8932155 C155.846572,33.6827332 154.166089,28.9335409 150.878187,25.6456385 C147.51722,22.2846716 143.13335,20.6772527 137.799642,20.6772527 Z" id="Shape"></path>
                    <polygon id="Shape" points="203.630754 21.3348332 190.698338 21.3348332 171.263181 41.6467634 171.263181 2.4841929 161.253345 2.4841929 161.253345 69.1190143 171.263181 69.1190143 171.263181 55.6020824 178.569631 48.2225681 192.744144 69.1190143 204.945915 69.1190143 185.510758 40.3316024"></polygon>
                    <path d="M334.781526,51.0720835 C333.904752,51.0720835 332.954914,51.875793 332.662656,53.7754699 C331.858946,57.7209528 330.251527,63.493048 326.671367,63.493048 C324.333303,63.493048 324.333303,60.2051457 324.333303,59.3283717 L324.333303,40.7699894 C324.333303,36.6053131 322.872013,31.7099918 316.880724,31.7099918 C312.496854,31.7099918 309.282017,35.5824101 306.797824,40.6238604 L306.797824,36.5322486 C306.797824,34.4133782 304.898147,32.5867657 301.975567,32.5867657 C300.73347,32.5867657 299.637503,33.2443462 299.637503,34.1211202 C299.637503,34.7787007 300.002825,35.2901521 300.002825,36.9706356 L300.002825,52.5333735 C299.856696,52.898696 299.710567,53.2640184 299.637503,53.7024054 C298.833793,57.6478883 297.226375,63.4199836 293.646214,63.4199836 C291.527344,63.4199836 290.577505,61.3011131 290.577505,59.2553072 L290.577505,44.4232143 C290.577505,42.3043439 288.677828,40.4777314 285.755248,40.4777314 C284.513152,40.4777314 283.417185,41.1353119 283.417185,42.0120859 C283.417185,42.6696664 283.782507,43.1811178 283.782507,44.8616013 L283.782507,58.6707912 C282.759604,61.1549841 281.152185,63.3469191 278.741057,63.3469191 C275.599283,63.3469191 273.626542,60.6435327 273.626542,55.9674048 C273.626542,43.0349888 281.590572,37.1898291 288.458635,37.1898291 C289.335409,37.1898291 290.285247,37.3359581 291.088957,37.3359581 C291.965731,37.3359581 292.257989,36.8245066 292.257989,35.2901521 C292.257989,32.9520882 290.577505,31.4907983 288.093312,31.4907983 C277.133638,31.4907983 266.758479,40.6238604 266.758479,55.6751469 L266.758479,56.7711143 C265.077996,60.4243392 262.22848,63.2738546 257.333159,63.2738546 C252.657031,63.2738546 250.245903,60.7896617 249.003806,57.7209528 C257.698482,55.0906309 262.301545,47.1996652 262.301545,40.5507959 C262.301545,35.1440231 259.232836,31.4907983 254.191386,31.4907983 C247.250258,31.4907983 240.45526,40.0393445 240.45526,51.437406 C240.45526,53.7754699 240.820583,55.8943403 241.405099,57.8670818 C240.528325,59.9128877 238.920906,61.3011131 236.144455,61.3011131 C235.486874,61.3011131 234.902358,61.3011131 234.244778,61.1549841 C235.121552,58.0132108 235.852197,50.3414386 235.852197,46.8343427 C235.852197,36.7514421 231.103005,32.2214433 226.353812,32.2214433 C223.285103,32.2214433 218.243653,33.9749912 215.75946,37.774345 L215.75946,4.38386983 C215.75946,2.26499941 213.859783,0.438386983 210.937203,0.438386983 C209.695107,0.438386983 208.087688,0.803709469 208.087688,1.46128994 C208.087688,2.11887042 208.964462,2.26499941 208.964462,4.89532131 L208.964462,53.2640184 C208.964462,62.0317581 213.202203,68.4614339 221.458491,68.9728853 C228.764941,69.4112723 231.614456,66.1964344 231.614456,66.1964344 C235.633003,68.2422404 240.674454,66.1964344 243.962356,63.1277256 C246.958,67.2193374 251.561064,69.4843368 256.383321,69.4843368 C262.22848,69.4843368 266.173963,67.3654664 268.804285,64.515951 C270.557833,67.5846599 273.480413,69.4843368 277.425896,69.4843368 C280.859927,69.4843368 283.34412,67.8769179 285.170732,65.831112 C286.485893,67.9499824 288.970086,69.4843368 292.11186,69.4843368 C295.545891,69.4843368 298.103148,67.8769179 300.07589,65.6119185 C300.148954,68.8267563 302.633147,69.4843368 304.386695,69.4843368 C307.017017,69.4843368 306.870888,67.3654664 306.870888,65.6119185 L306.870888,52.5333735 C307.528469,45.4461172 313.08137,37.7012805 315.638628,37.7012805 C317.319111,37.7012805 317.538305,40.0393445 317.538305,42.8157953 L317.538305,61.0088551 C317.538305,65.6119185 320.314756,69.4843368 325.063948,69.4843368 C332.808785,69.4843368 336.388945,61.3741776 337.923299,55.4559534 C337.996364,55.0906309 337.996364,54.9445019 337.996364,54.7983729 C337.923299,53.044825 336.242816,51.0720835 334.781526,51.0720835 Z M227.595909,60.0590167 C225.403974,62.7624031 223.138974,63.7122415 220.216395,63.1277256 C217.293815,62.5432096 215.248009,57.7940173 214.955751,55.3828889 C214.736557,53.7024054 214.809622,51.291277 215.686396,48.2225681 L215.686396,48.0033746 L215.686396,48.0764391 C216.051718,46.8343427 216.490105,45.4461172 217.074621,43.9848273 C218.02446,41.6467634 219.851072,39.96628 221.531555,38.8703125 C224.308006,36.9706356 228.180425,38.2857965 229.276392,41.4275699 C230.153166,43.9848273 230.153166,46.6882137 230.153166,47.9303102 C230.080102,49.9761161 229.787844,57.2825658 227.595909,60.0590167 Z M247.688645,51.3643415 C247.542516,47.5649877 248.857677,37.7012805 253.241547,37.7012805 C254.410579,37.7012805 255.141224,38.8703125 255.141224,40.8430539 C255.141224,46.2498267 252.291709,50.9259545 247.76171,52.9717605 C247.76171,52.3872445 247.688645,51.875793 247.688645,51.3643415 Z" id="Shape"></path>
                </g>
                <path d="M154.750605,42.5235374 C156.650282,39.8932155 157.746249,36.6783776 157.746249,33.1712817 C157.746249,25.9378965 152.997057,19.8735432 146.421252,17.8277373 C146.128994,17.7546728 145.982865,17.5354793 145.836736,17.2432213 C142.768027,7.45257871 133.927223,0.438386983 123.405936,0.438386983 C114.492067,0.438386983 106.674166,5.55290179 102.728683,13.1516095 C102.582554,13.516932 102.217232,13.663061 101.851909,13.5899965 C96.6643298,12.5670935 90.380783,13.516932 85.9238487,17.8277373 C78.47127,25.0611225 76.3523996,39.527893 90.673041,47.9303102 C91.9151375,48.6609551 93.0841694,49.0262776 94.8377173,49.0262776 L141.306738,49.0993421 L141.67206,49.0993421 L142.037383,49.0993421 L143.060285,49.0993421 C148.540123,49.6107936 151.09738,51.729664 152.704799,53.8485344 C153.946896,55.5290179 156.650282,54.5791794 156.504153,52.460309 C156.284959,49.1724066 155.188992,45.2999883 154.458347,43.1080533 C154.531412,43.0349888 154.604476,42.7427309 154.750605,42.5235374 Z M101.559651,37.628216 C100.755942,38.358861 99.8061031,38.797248 98.7101357,38.8703125 C97.3219102,38.943377 95.9336848,38.358861 94.9838463,37.3359581 C94.2532014,36.5322486 93.8878789,35.6554746 93.8878789,34.5595072 C93.8878789,33.5366042 94.2532014,32.5867657 94.9838463,31.7830563 C95.9336848,30.7601533 97.3219102,30.1756373 98.7101357,30.2487018 C99.8061031,30.3217663 100.682877,30.7601533 101.486587,31.4907983 C102.363361,32.3675723 102.801748,33.3174107 102.801748,34.4864427 C102.874812,35.8016036 102.436425,36.7514421 101.559651,37.628216 Z M122.01771,37.628216 C121.214001,38.358861 120.264162,38.797248 119.168195,38.8703125 C117.779969,38.943377 116.391744,38.358861 115.441906,37.3359581 C114.711261,36.5322486 114.345938,35.6554746 114.345938,34.5595072 C114.345938,33.5366042 114.711261,32.5867657 115.441906,31.7830563 C116.391744,30.7601533 117.779969,30.1756373 119.168195,30.2487018 C120.264162,30.3217663 121.140936,30.7601533 121.944646,31.4907983 C122.82142,32.3675723 123.259807,33.3174107 123.259807,34.4864427 C123.405936,35.8016036 122.894484,36.7514421 122.01771,37.628216 Z M142.548834,37.628216 C141.745125,38.358861 140.795286,38.797248 139.699319,38.8703125 C138.311093,38.943377 136.922868,38.358861 135.973029,37.3359581 C135.242384,36.5322486 134.877062,35.6554746 134.877062,34.5595072 C134.877062,33.5366042 135.242384,32.5867657 135.973029,31.7830563 C136.922868,30.7601533 138.311093,30.1756373 139.699319,30.2487018 C140.795286,30.3217663 141.67206,30.7601533 142.47577,31.4907983 C143.352543,32.3675723 143.79093,33.3174107 143.79093,34.4864427 C143.863995,35.8016036 143.425608,36.7514421 142.548834,37.628216 Z" id="Shape"></path>
            </g>
        </g>
    </g>
</svg>